<?xml version="1.0" ?><svg viewBox="0 0 32 32" xmlns="http://www.w3.org/2000/svg"><title/><g data-name="Layer 9" id="Layer_9"><path d="M26,5.78H20.57V4.94a2.11,2.11,0,0,0-2.1-2.1H13.54a2.11,2.11,0,0,0-2.1,2.1v.85H6a.5.5,0,0,0,0,1H7.72v19a2.94,2.94,0,0,0,2.94,2.94H21.34a2.94,2.94,0,0,0,2.94-2.94v-19H26a.5.5,0,0,0,0-1ZM12.43,4.94a1.11,1.11,0,0,1,1.1-1.1h4.93a1.11,1.11,0,0,1,1.1,1.1v.85H12.43ZM23.28,25.81a1.94,1.94,0,0,1-1.94,1.94H10.66a1.94,1.94,0,0,1-1.94-1.94v-19H23.28Z"/><path d="M16,9.44a.5.5,0,0,0-.5.5V24.36a.5.5,0,0,0,1,0V9.94A.5.5,0,0,0,16,9.44Z"/><path d="M20.88,24.86a.5.5,0,0,0,.5-.5V9.94a.5.5,0,1,0-1,0V24.36A.5.5,0,0,0,20.88,24.86Z"/><path d="M11.12,9.44a.5.5,0,0,0-.5.5V24.36a.5.5,0,0,0,1,0V9.94A.5.5,0,0,0,11.12,9.44Z"/></g></svg>